<mxfile host="Electron" modified="2023-12-10T14:48:48.780Z" agent="Mozilla/5.0 (Windows NT 10.0; Win64; x64) AppleWebKit/537.36 (KHTML, like Gecko) draw.io/22.0.3 Chrome/114.0.5735.289 Electron/25.8.4 Safari/537.36" etag="iHCRF--i10WPOLPNZP-9" version="22.0.3" type="device">
  <diagram name="Seite-1" id="QvlJXPIy2Uv3TCeMsCB3">
    <mxGraphModel dx="4146" dy="965" grid="1" gridSize="10" guides="1" tooltips="1" connect="1" arrows="1" fold="1" page="1" pageScale="1" pageWidth="827" pageHeight="1169" math="0" shadow="0">
      <root>
        <mxCell id="0" />
        <mxCell id="1" parent="0" />
        <mxCell id="bLBbhyGUmp5BfocRxA7A-1" value="Email" style="shape=folder;fontStyle=1;spacingTop=10;tabWidth=40;tabHeight=14;tabPosition=left;html=1;whiteSpace=wrap;strokeColor=#000000;" parent="1" vertex="1">
          <mxGeometry x="-3040" y="90" width="70" height="50" as="geometry" />
        </mxCell>
        <mxCell id="bLBbhyGUmp5BfocRxA7A-2" value="Security" style="shape=folder;fontStyle=1;spacingTop=10;tabWidth=40;tabHeight=14;tabPosition=left;html=1;whiteSpace=wrap;strokeColor=#000000;" parent="1" vertex="1">
          <mxGeometry x="-3280" y="30" width="70" height="50" as="geometry" />
        </mxCell>
        <mxCell id="bLBbhyGUmp5BfocRxA7A-3" value="Friendlist" style="shape=folder;fontStyle=1;spacingTop=10;tabWidth=40;tabHeight=14;tabPosition=left;html=1;whiteSpace=wrap;strokeColor=#000000;" parent="1" vertex="1">
          <mxGeometry x="-3130" y="20" width="70" height="50" as="geometry" />
        </mxCell>
        <mxCell id="bLBbhyGUmp5BfocRxA7A-5" value="Matchmaking" style="shape=folder;fontStyle=1;spacingTop=10;tabWidth=40;tabHeight=14;tabPosition=left;html=1;whiteSpace=wrap;" parent="1" vertex="1">
          <mxGeometry x="-3290" y="220" width="70" height="50" as="geometry" />
        </mxCell>
        <mxCell id="bLBbhyGUmp5BfocRxA7A-7" value="User" style="shape=folder;fontStyle=1;spacingTop=10;tabWidth=40;tabHeight=14;tabPosition=left;html=1;whiteSpace=wrap;strokeColor=#000000;" parent="1" vertex="1">
          <mxGeometry x="-3140" y="140" width="70" height="50" as="geometry" />
        </mxCell>
        <mxCell id="bLBbhyGUmp5BfocRxA7A-8" value="ChessGame" style="shape=folder;fontStyle=1;spacingTop=10;tabWidth=40;tabHeight=14;tabPosition=left;html=1;whiteSpace=wrap;" parent="1" vertex="1">
          <mxGeometry x="-3150" y="270" width="70" height="50" as="geometry" />
        </mxCell>
        <mxCell id="bLBbhyGUmp5BfocRxA7A-9" value="ChessClub" style="shape=folder;fontStyle=1;spacingTop=10;tabWidth=40;tabHeight=14;tabPosition=left;html=1;whiteSpace=wrap;" parent="1" vertex="1">
          <mxGeometry x="-3050" y="230" width="70" height="50" as="geometry" />
        </mxCell>
        <mxCell id="bLBbhyGUmp5BfocRxA7A-10" style="edgeStyle=orthogonalEdgeStyle;rounded=0;orthogonalLoop=1;jettySize=auto;html=1;entryX=0;entryY=0;entryDx=0;entryDy=32;entryPerimeter=0;strokeColor=#000000;" parent="1" source="bLBbhyGUmp5BfocRxA7A-7" target="bLBbhyGUmp5BfocRxA7A-1" edge="1">
          <mxGeometry relative="1" as="geometry" />
        </mxCell>
        <mxCell id="bLBbhyGUmp5BfocRxA7A-11" style="edgeStyle=orthogonalEdgeStyle;rounded=0;orthogonalLoop=1;jettySize=auto;html=1;entryX=0.419;entryY=0.047;entryDx=0;entryDy=0;entryPerimeter=0;strokeColor=#000000;" parent="1" source="bLBbhyGUmp5BfocRxA7A-3" target="bLBbhyGUmp5BfocRxA7A-7" edge="1">
          <mxGeometry relative="1" as="geometry" />
        </mxCell>
        <mxCell id="bLBbhyGUmp5BfocRxA7A-12" style="edgeStyle=orthogonalEdgeStyle;rounded=0;orthogonalLoop=1;jettySize=auto;html=1;exitX=0;exitY=0.028;exitDx=0;exitDy=0;exitPerimeter=0;" parent="1" source="bLBbhyGUmp5BfocRxA7A-20" edge="1">
          <mxGeometry relative="1" as="geometry">
            <mxPoint x="-2830" y="335.0344827586207" as="sourcePoint" />
            <mxPoint x="-3070" y="180" as="targetPoint" />
            <Array as="points">
              <mxPoint x="-2880" y="51" />
              <mxPoint x="-2940" y="51" />
              <mxPoint x="-2940" y="180" />
              <mxPoint x="-3070" y="180" />
            </Array>
          </mxGeometry>
        </mxCell>
        <mxCell id="bLBbhyGUmp5BfocRxA7A-14" style="edgeStyle=orthogonalEdgeStyle;rounded=0;orthogonalLoop=1;jettySize=auto;html=1;exitX=0;exitY=0;exitDx=70;exitDy=32;exitPerimeter=0;entryX=0;entryY=0;entryDx=0;entryDy=41;entryPerimeter=0;" parent="1" source="bLBbhyGUmp5BfocRxA7A-5" target="bLBbhyGUmp5BfocRxA7A-8" edge="1">
          <mxGeometry relative="1" as="geometry" />
        </mxCell>
        <mxCell id="bLBbhyGUmp5BfocRxA7A-15" style="edgeStyle=orthogonalEdgeStyle;rounded=0;orthogonalLoop=1;jettySize=auto;html=1;" parent="1" source="bLBbhyGUmp5BfocRxA7A-9" edge="1">
          <mxGeometry relative="1" as="geometry">
            <mxPoint x="-3105" y="190" as="targetPoint" />
          </mxGeometry>
        </mxCell>
        <mxCell id="bLBbhyGUmp5BfocRxA7A-16" style="edgeStyle=orthogonalEdgeStyle;rounded=0;orthogonalLoop=1;jettySize=auto;html=1;entryX=0.25;entryY=1;entryDx=0;entryDy=0;entryPerimeter=0;" parent="1" source="bLBbhyGUmp5BfocRxA7A-5" target="bLBbhyGUmp5BfocRxA7A-7" edge="1">
          <mxGeometry relative="1" as="geometry" />
        </mxCell>
        <mxCell id="bLBbhyGUmp5BfocRxA7A-17" style="edgeStyle=orthogonalEdgeStyle;rounded=0;orthogonalLoop=1;jettySize=auto;html=1;entryX=0;entryY=0;entryDx=70;entryDy=41;entryPerimeter=0;strokeColor=#000000;" parent="1" source="bLBbhyGUmp5BfocRxA7A-3" target="bLBbhyGUmp5BfocRxA7A-1" edge="1">
          <mxGeometry relative="1" as="geometry" />
        </mxCell>
        <mxCell id="bLBbhyGUmp5BfocRxA7A-18" style="edgeStyle=orthogonalEdgeStyle;rounded=0;orthogonalLoop=1;jettySize=auto;html=1;entryX=0;entryY=0;entryDx=0;entryDy=41;entryPerimeter=0;strokeColor=#000000;" parent="1" source="bLBbhyGUmp5BfocRxA7A-2" target="bLBbhyGUmp5BfocRxA7A-7" edge="1">
          <mxGeometry relative="1" as="geometry" />
        </mxCell>
        <mxCell id="bLBbhyGUmp5BfocRxA7A-19" style="edgeStyle=orthogonalEdgeStyle;rounded=0;orthogonalLoop=1;jettySize=auto;html=1;entryX=0;entryY=0.075;entryDx=0;entryDy=0;entryPerimeter=0;" parent="1" source="bLBbhyGUmp5BfocRxA7A-9" target="bLBbhyGUmp5BfocRxA7A-20" edge="1">
          <mxGeometry relative="1" as="geometry">
            <mxPoint x="-2830" y="351.0000000000001" as="targetPoint" />
          </mxGeometry>
        </mxCell>
        <mxCell id="bLBbhyGUmp5BfocRxA7A-20" value="Package" style="shape=folder;fontStyle=1;tabWidth=110;tabHeight=30;tabPosition=left;html=1;boundedLbl=1;labelInHeader=1;container=1;collapsible=0;whiteSpace=wrap;" parent="1" vertex="1">
          <mxGeometry x="-2880" y="30" width="1160" height="1090" as="geometry" />
        </mxCell>
        <mxCell id="bLBbhyGUmp5BfocRxA7A-21" value="Chat" style="html=1;strokeColor=none;resizeWidth=1;resizeHeight=1;fillColor=none;part=1;connectable=0;allowArrows=0;deletable=0;whiteSpace=wrap;" parent="bLBbhyGUmp5BfocRxA7A-20" vertex="1">
          <mxGeometry width="1160" height="32.24852071005917" relative="1" as="geometry">
            <mxPoint y="30" as="offset" />
          </mxGeometry>
        </mxCell>
        <mxCell id="bLBbhyGUmp5BfocRxA7A-44" value="ChatController" style="swimlane;fontStyle=1;align=center;verticalAlign=top;childLayout=stackLayout;horizontal=1;startSize=26;horizontalStack=0;resizeParent=1;resizeParentMax=0;resizeLast=0;collapsible=1;marginBottom=0;whiteSpace=wrap;html=1;fillColor=#FFFFFF;" parent="bLBbhyGUmp5BfocRxA7A-20" vertex="1">
          <mxGeometry x="590.875" y="397.70270270270277" width="398.75" height="357.4189189189189" as="geometry" />
        </mxCell>
        <mxCell id="bLBbhyGUmp5BfocRxA7A-45" value="+ CHATSERVICE: ChatService" style="text;strokeColor=none;fillColor=#FFFFFF;align=left;verticalAlign=top;spacingLeft=4;spacingRight=4;overflow=hidden;rotatable=0;points=[[0,0.5],[1,0.5]];portConstraint=eastwest;whiteSpace=wrap;html=1;" parent="bLBbhyGUmp5BfocRxA7A-44" vertex="1">
          <mxGeometry y="26" width="398.75" height="19.148648648648653" as="geometry" />
        </mxCell>
        <mxCell id="bLBbhyGUmp5BfocRxA7A-46" value="" style="line;strokeWidth=1;fillColor=#FFFFFF;align=left;verticalAlign=middle;spacingTop=-1;spacingLeft=3;spacingRight=3;rotatable=0;labelPosition=right;points=[];portConstraint=eastwest;strokeColor=inherit;" parent="bLBbhyGUmp5BfocRxA7A-44" vertex="1">
          <mxGeometry y="45.14864864864865" width="398.75" height="5.891891891891893" as="geometry" />
        </mxCell>
        <mxCell id="bLBbhyGUmp5BfocRxA7A-47" value="+ createChatPrivate(friendId: Long): ResponseEntity&amp;lt;Boolean&amp;gt;" style="text;strokeColor=none;fillColor=#FFFFFF;align=left;verticalAlign=top;spacingLeft=4;spacingRight=4;overflow=hidden;rotatable=0;points=[[0,0.5],[1,0.5]];portConstraint=eastwest;whiteSpace=wrap;html=1;" parent="bLBbhyGUmp5BfocRxA7A-44" vertex="1">
          <mxGeometry y="51.04054054054055" width="398.75" height="19.148648648648653" as="geometry" />
        </mxCell>
        <mxCell id="bLBbhyGUmp5BfocRxA7A-48" value="+ wirteMessage(chatId:long, chatRequestDto: ChatRequestDto): RespnseEntity&amp;lt;Boolean&amp;gt;" style="text;strokeColor=none;fillColor=#FFFFFF;align=left;verticalAlign=top;spacingLeft=4;spacingRight=4;overflow=hidden;rotatable=0;points=[[0,0.5],[1,0.5]];portConstraint=eastwest;whiteSpace=wrap;html=1;" parent="bLBbhyGUmp5BfocRxA7A-44" vertex="1">
          <mxGeometry y="70.1891891891892" width="398.75" height="19.148648648648653" as="geometry" />
        </mxCell>
        <mxCell id="bLBbhyGUmp5BfocRxA7A-49" value="+ getMyPrivateChatWith(friendId:long):ResponseEntity&amp;lt;Chat&amp;gt;" style="text;strokeColor=none;fillColor=#FFFFFF;align=left;verticalAlign=top;spacingLeft=4;spacingRight=4;overflow=hidden;rotatable=0;points=[[0,0.5],[1,0.5]];portConstraint=eastwest;whiteSpace=wrap;html=1;" parent="bLBbhyGUmp5BfocRxA7A-44" vertex="1">
          <mxGeometry y="89.33783783783784" width="398.75" height="19.148648648648653" as="geometry" />
        </mxCell>
        <mxCell id="bLBbhyGUmp5BfocRxA7A-50" value="+ createChatGroup(groupName:String, user: List&amp;lt;Long&amp;gt;): ResponseEntity&amp;lt;Boolean&amp;gt;" style="text;strokeColor=none;fillColor=#FFFFFF;align=left;verticalAlign=top;spacingLeft=4;spacingRight=4;overflow=hidden;rotatable=0;points=[[0,0.5],[1,0.5]];portConstraint=eastwest;whiteSpace=wrap;html=1;" parent="bLBbhyGUmp5BfocRxA7A-44" vertex="1">
          <mxGeometry y="108.48648648648648" width="398.75" height="19.148648648648653" as="geometry" />
        </mxCell>
        <mxCell id="bLBbhyGUmp5BfocRxA7A-51" value="+ wirteMessageGroup(chatId:long, chatRequestDto: ChatRequestDto): RespnseEntity&amp;lt;Boolean&amp;gt;" style="text;strokeColor=none;fillColor=#FFFFFF;align=left;verticalAlign=top;spacingLeft=4;spacingRight=4;overflow=hidden;rotatable=0;points=[[0,0.5],[1,0.5]];portConstraint=eastwest;whiteSpace=wrap;html=1;" parent="bLBbhyGUmp5BfocRxA7A-44" vertex="1">
          <mxGeometry y="127.63513513513513" width="398.75" height="19.148648648648653" as="geometry" />
        </mxCell>
        <mxCell id="bLBbhyGUmp5BfocRxA7A-52" value="+ addMember(chatId: Long, newMemberId: ChatRequestDto): ResponseEntity&amp;lt;Boolean&amp;gt;" style="text;strokeColor=none;fillColor=#FFFFFF;align=left;verticalAlign=top;spacingLeft=4;spacingRight=4;overflow=hidden;rotatable=0;points=[[0,0.5],[1,0.5]];portConstraint=eastwest;whiteSpace=wrap;html=1;" parent="bLBbhyGUmp5BfocRxA7A-44" vertex="1">
          <mxGeometry y="146.78378378378378" width="398.75" height="19.148648648648653" as="geometry" />
        </mxCell>
        <mxCell id="bLBbhyGUmp5BfocRxA7A-53" value="+ membersOfChatId(chatId: long):ResponseEntity&amp;lt;List&amp;lt;Long&amp;gt;&amp;gt;" style="text;strokeColor=none;fillColor=#FFFFFF;align=left;verticalAlign=top;spacingLeft=4;spacingRight=4;overflow=hidden;rotatable=0;points=[[0,0.5],[1,0.5]];portConstraint=eastwest;whiteSpace=wrap;html=1;" parent="bLBbhyGUmp5BfocRxA7A-44" vertex="1">
          <mxGeometry y="165.93243243243242" width="398.75" height="19.148648648648653" as="geometry" />
        </mxCell>
        <mxCell id="bLBbhyGUmp5BfocRxA7A-54" value="+ getGroupByGroupName(privateGroupName: String): ResponseEntity&amp;lt;Chat&amp;gt;" style="text;strokeColor=none;fillColor=#FFFFFF;align=left;verticalAlign=top;spacingLeft=4;spacingRight=4;overflow=hidden;rotatable=0;points=[[0,0.5],[1,0.5]];portConstraint=eastwest;whiteSpace=wrap;html=1;" parent="bLBbhyGUmp5BfocRxA7A-44" vertex="1">
          <mxGeometry y="185.08108108108107" width="398.75" height="19.148648648648653" as="geometry" />
        </mxCell>
        <mxCell id="bLBbhyGUmp5BfocRxA7A-55" value="+ allMyGroupChats(): List&amp;lt;Chat&amp;gt;" style="text;strokeColor=none;fillColor=#FFFFFF;align=left;verticalAlign=top;spacingLeft=4;spacingRight=4;overflow=hidden;rotatable=0;points=[[0,0.5],[1,0.5]];portConstraint=eastwest;whiteSpace=wrap;html=1;" parent="bLBbhyGUmp5BfocRxA7A-44" vertex="1">
          <mxGeometry y="204.2297297297297" width="398.75" height="19.148648648648653" as="geometry" />
        </mxCell>
        <mxCell id="bLBbhyGUmp5BfocRxA7A-56" value="+ findLatestMessage(chatId: long, time: long): ResponseEntity&amp;lt;List&amp;lt;ChatMessage&amp;gt;&amp;gt;" style="text;strokeColor=none;fillColor=#FFFFFF;align=left;verticalAlign=top;spacingLeft=4;spacingRight=4;overflow=hidden;rotatable=0;points=[[0,0.5],[1,0.5]];portConstraint=eastwest;whiteSpace=wrap;html=1;" parent="bLBbhyGUmp5BfocRxA7A-44" vertex="1">
          <mxGeometry y="223.37837837837836" width="398.75" height="19.148648648648653" as="geometry" />
        </mxCell>
        <mxCell id="bLBbhyGUmp5BfocRxA7A-57" value="+&amp;nbsp;lastWrittenChangeableMessage(chatId: long): ResponseEntity&amp;lt;List&amp;lt;ChatMessage&amp;gt;&amp;gt;" style="text;strokeColor=none;fillColor=#FFFFFF;align=left;verticalAlign=top;spacingLeft=4;spacingRight=4;overflow=hidden;rotatable=0;points=[[0,0.5],[1,0.5]];portConstraint=eastwest;whiteSpace=wrap;html=1;" parent="bLBbhyGUmp5BfocRxA7A-44" vertex="1">
          <mxGeometry y="242.527027027027" width="398.75" height="19.148648648648653" as="geometry" />
        </mxCell>
        <mxCell id="bLBbhyGUmp5BfocRxA7A-58" value="+ changeMessage(chatId: long, chatRequestDto: ChatRequestDto): ResponseEntity&amp;lt;Boolean&amp;gt;" style="text;strokeColor=none;fillColor=#FFFFFF;align=left;verticalAlign=top;spacingLeft=4;spacingRight=4;overflow=hidden;rotatable=0;points=[[0,0.5],[1,0.5]];portConstraint=eastwest;whiteSpace=wrap;html=1;" parent="bLBbhyGUmp5BfocRxA7A-44" vertex="1">
          <mxGeometry y="261.6756756756757" width="398.75" height="19.148648648648653" as="geometry" />
        </mxCell>
        <mxCell id="bLBbhyGUmp5BfocRxA7A-59" value="+deleteMessage(chatId: long, chatRequestDto: ChatRequestDto): ResponseEntity&amp;lt;Boolean&amp;gt;" style="text;strokeColor=none;fillColor=#FFFFFF;align=left;verticalAlign=top;spacingLeft=4;spacingRight=4;overflow=hidden;rotatable=0;points=[[0,0.5],[1,0.5]];portConstraint=eastwest;whiteSpace=wrap;html=1;" parent="bLBbhyGUmp5BfocRxA7A-44" vertex="1">
          <mxGeometry y="280.8243243243243" width="398.75" height="19.148648648648653" as="geometry" />
        </mxCell>
        <mxCell id="bLBbhyGUmp5BfocRxA7A-60" value="messages(chatId:long): ResponseEntity&amp;lt;List&amp;lt;ChatMessage&amp;gt;&amp;gt;" style="text;strokeColor=none;fillColor=#FFFFFF;align=left;verticalAlign=top;spacingLeft=4;spacingRight=4;overflow=hidden;rotatable=0;points=[[0,0.5],[1,0.5]];portConstraint=eastwest;whiteSpace=wrap;html=1;" parent="bLBbhyGUmp5BfocRxA7A-44" vertex="1">
          <mxGeometry y="299.97297297297297" width="398.75" height="19.148648648648653" as="geometry" />
        </mxCell>
        <mxCell id="bLBbhyGUmp5BfocRxA7A-61" value="+ leaveChatGroup(): void" style="text;strokeColor=none;fillColor=#FFFFFF;align=left;verticalAlign=top;spacingLeft=4;spacingRight=4;overflow=hidden;rotatable=0;points=[[0,0.5],[1,0.5]];portConstraint=eastwest;whiteSpace=wrap;html=1;" parent="bLBbhyGUmp5BfocRxA7A-44" vertex="1">
          <mxGeometry y="319.1216216216216" width="398.75" height="19.148648648648653" as="geometry" />
        </mxCell>
        <mxCell id="bLBbhyGUmp5BfocRxA7A-62" value="+ deleteChat(ownerId: Long, type:ChatType): void" style="text;strokeColor=none;fillColor=#FFFFFF;align=left;verticalAlign=top;spacingLeft=4;spacingRight=4;overflow=hidden;rotatable=0;points=[[0,0.5],[1,0.5]];portConstraint=eastwest;whiteSpace=wrap;html=1;" parent="bLBbhyGUmp5BfocRxA7A-44" vertex="1">
          <mxGeometry y="338.27027027027026" width="398.75" height="19.148648648648653" as="geometry" />
        </mxCell>
        <mxCell id="bLBbhyGUmp5BfocRxA7A-70" value="Chat" style="swimlane;fontStyle=1;align=center;verticalAlign=top;childLayout=stackLayout;horizontal=1;startSize=26;horizontalStack=0;resizeParent=1;resizeParentMax=0;resizeLast=0;collapsible=1;marginBottom=0;whiteSpace=wrap;html=1;fillColor=#FFFFFF;" parent="bLBbhyGUmp5BfocRxA7A-20" vertex="1">
          <mxGeometry x="732.25" y="162.02702702702703" width="116" height="165.93243243243242" as="geometry" />
        </mxCell>
        <mxCell id="bLBbhyGUmp5BfocRxA7A-71" value="- chatId: Long" style="text;strokeColor=none;fillColor=#FFFFFF;align=left;verticalAlign=top;spacingLeft=4;spacingRight=4;overflow=hidden;rotatable=0;points=[[0,0.5],[1,0.5]];portConstraint=eastwest;whiteSpace=wrap;html=1;" parent="bLBbhyGUmp5BfocRxA7A-70" vertex="1">
          <mxGeometry y="26" width="116" height="19.148648648648646" as="geometry" />
        </mxCell>
        <mxCell id="bLBbhyGUmp5BfocRxA7A-72" value="- ownerId: Long" style="text;strokeColor=none;fillColor=#FFFFFF;align=left;verticalAlign=top;spacingLeft=4;spacingRight=4;overflow=hidden;rotatable=0;points=[[0,0.5],[1,0.5]];portConstraint=eastwest;whiteSpace=wrap;html=1;" parent="bLBbhyGUmp5BfocRxA7A-70" vertex="1">
          <mxGeometry y="45.148648648648646" width="116" height="19.148648648648646" as="geometry" />
        </mxCell>
        <mxCell id="bLBbhyGUmp5BfocRxA7A-73" value="- chatType: ChatType" style="text;strokeColor=none;fillColor=#FFFFFF;align=left;verticalAlign=top;spacingLeft=4;spacingRight=4;overflow=hidden;rotatable=0;points=[[0,0.5],[1,0.5]];portConstraint=eastwest;whiteSpace=wrap;html=1;" parent="bLBbhyGUmp5BfocRxA7A-70" vertex="1">
          <mxGeometry y="64.29729729729729" width="116" height="19.148648648648646" as="geometry" />
        </mxCell>
        <mxCell id="bLBbhyGUmp5BfocRxA7A-74" value="- recipientId: long" style="text;strokeColor=none;fillColor=#FFFFFF;align=left;verticalAlign=top;spacingLeft=4;spacingRight=4;overflow=hidden;rotatable=0;points=[[0,0.5],[1,0.5]];portConstraint=eastwest;whiteSpace=wrap;html=1;" parent="bLBbhyGUmp5BfocRxA7A-70" vertex="1">
          <mxGeometry y="83.44594594594594" width="116" height="19.148648648648646" as="geometry" />
        </mxCell>
        <mxCell id="bLBbhyGUmp5BfocRxA7A-75" value="- chessClubName: String" style="text;strokeColor=none;fillColor=#FFFFFF;align=left;verticalAlign=top;spacingLeft=4;spacingRight=4;overflow=hidden;rotatable=0;points=[[0,0.5],[1,0.5]];portConstraint=eastwest;whiteSpace=wrap;html=1;" parent="bLBbhyGUmp5BfocRxA7A-70" vertex="1">
          <mxGeometry y="102.59459459459458" width="116" height="19.148648648648646" as="geometry" />
        </mxCell>
        <mxCell id="bLBbhyGUmp5BfocRxA7A-76" value="- privateGroupName: String" style="text;strokeColor=none;fillColor=#FFFFFF;align=left;verticalAlign=top;spacingLeft=4;spacingRight=4;overflow=hidden;rotatable=0;points=[[0,0.5],[1,0.5]];portConstraint=eastwest;whiteSpace=wrap;html=1;" parent="bLBbhyGUmp5BfocRxA7A-70" vertex="1">
          <mxGeometry y="121.74324324324323" width="116" height="19.148648648648646" as="geometry" />
        </mxCell>
        <mxCell id="bLBbhyGUmp5BfocRxA7A-77" value="- user: List&amp;lt;Long&amp;gt;" style="text;strokeColor=none;fillColor=#FFFFFF;align=left;verticalAlign=top;spacingLeft=4;spacingRight=4;overflow=hidden;rotatable=0;points=[[0,0.5],[1,0.5]];portConstraint=eastwest;whiteSpace=wrap;html=1;" parent="bLBbhyGUmp5BfocRxA7A-70" vertex="1">
          <mxGeometry y="140.89189189189187" width="116" height="19.148648648648646" as="geometry" />
        </mxCell>
        <mxCell id="bLBbhyGUmp5BfocRxA7A-78" value="" style="line;strokeWidth=1;fillColor=#FFFFFF;align=left;verticalAlign=middle;spacingTop=-1;spacingLeft=3;spacingRight=3;rotatable=0;labelPosition=right;points=[];portConstraint=eastwest;strokeColor=inherit;" parent="bLBbhyGUmp5BfocRxA7A-70" vertex="1">
          <mxGeometry y="160.04054054054052" width="116" height="5.89189189189189" as="geometry" />
        </mxCell>
        <mxCell id="bLBbhyGUmp5BfocRxA7A-79" value="&amp;lt;&amp;lt;interface&amp;gt;&amp;gt;&lt;br&gt;ChatRepository" style="swimlane;fontStyle=0;childLayout=stackLayout;horizontal=1;startSize=26;fillColor=#FFFFFF;horizontalStack=0;resizeParent=1;resizeParentMax=0;resizeLast=0;collapsible=1;marginBottom=0;whiteSpace=wrap;html=1;" parent="bLBbhyGUmp5BfocRxA7A-20" vertex="1">
          <mxGeometry x="304.5" y="294.5945945945946" width="101.5" height="38.2972972972973" as="geometry" />
        </mxCell>
        <mxCell id="bLBbhyGUmp5BfocRxA7A-80" style="edgeStyle=orthogonalEdgeStyle;rounded=0;orthogonalLoop=1;jettySize=auto;html=1;entryX=0.5;entryY=1;entryDx=0;entryDy=0;fillColor=#FFFFFF;" parent="bLBbhyGUmp5BfocRxA7A-20" source="bLBbhyGUmp5BfocRxA7A-83" target="bLBbhyGUmp5BfocRxA7A-79" edge="1">
          <mxGeometry relative="1" as="geometry" />
        </mxCell>
        <mxCell id="bLBbhyGUmp5BfocRxA7A-81" value="1" style="edgeLabel;html=1;align=center;verticalAlign=middle;resizable=0;points=[];fillColor=#FFFFFF;" parent="bLBbhyGUmp5BfocRxA7A-80" vertex="1" connectable="0">
          <mxGeometry x="0.8858" y="3" relative="1" as="geometry">
            <mxPoint as="offset" />
          </mxGeometry>
        </mxCell>
        <mxCell id="bLBbhyGUmp5BfocRxA7A-82" value="1" style="edgeLabel;html=1;align=center;verticalAlign=middle;resizable=0;points=[];fillColor=#FFFFFF;" parent="bLBbhyGUmp5BfocRxA7A-80" vertex="1" connectable="0">
          <mxGeometry x="-0.854" relative="1" as="geometry">
            <mxPoint as="offset" />
          </mxGeometry>
        </mxCell>
        <mxCell id="bLBbhyGUmp5BfocRxA7A-83" value="ChatService" style="swimlane;fontStyle=1;align=center;verticalAlign=top;childLayout=stackLayout;horizontal=1;startSize=26;horizontalStack=0;resizeParent=1;resizeParentMax=0;resizeLast=0;collapsible=1;marginBottom=0;whiteSpace=wrap;html=1;fillColor=#FFFFFF;" parent="bLBbhyGUmp5BfocRxA7A-20" vertex="1">
          <mxGeometry x="137.75" y="493.445945945946" width="333.5" height="559.216216216216" as="geometry" />
        </mxCell>
        <mxCell id="bLBbhyGUmp5BfocRxA7A-85" value="- CHATMESSAGEREPOSITORY: chatMessageRepository" style="text;strokeColor=none;fillColor=#FFFFFF;align=left;verticalAlign=top;spacingLeft=4;spacingRight=4;overflow=hidden;rotatable=0;points=[[0,0.5],[1,0.5]];portConstraint=eastwest;whiteSpace=wrap;html=1;" parent="bLBbhyGUmp5BfocRxA7A-83" vertex="1">
          <mxGeometry y="26" width="333.5" height="19.148648648648646" as="geometry" />
        </mxCell>
        <mxCell id="bLBbhyGUmp5BfocRxA7A-84" value="- CHATREPOSITORY:chatRepository" style="text;strokeColor=none;fillColor=#FFFFFF;align=left;verticalAlign=top;spacingLeft=4;spacingRight=4;overflow=hidden;rotatable=0;points=[[0,0.5],[1,0.5]];portConstraint=eastwest;whiteSpace=wrap;html=1;" parent="bLBbhyGUmp5BfocRxA7A-83" vertex="1">
          <mxGeometry y="45.148648648648646" width="333.5" height="19.148648648648646" as="geometry" />
        </mxCell>
        <mxCell id="bLBbhyGUmp5BfocRxA7A-86" value="- CHATCLUBREPOSITORY: chatClubRepository" style="text;strokeColor=none;fillColor=#FFFFFF;align=left;verticalAlign=top;spacingLeft=4;spacingRight=4;overflow=hidden;rotatable=0;points=[[0,0.5],[1,0.5]];portConstraint=eastwest;whiteSpace=wrap;html=1;" parent="bLBbhyGUmp5BfocRxA7A-83" vertex="1">
          <mxGeometry y="64.29729729729729" width="333.5" height="19.148648648648646" as="geometry" />
        </mxCell>
        <mxCell id="bLBbhyGUmp5BfocRxA7A-87" value="-&amp;nbsp; USERREPOSITORY: userRepository" style="text;strokeColor=none;fillColor=#FFFFFF;align=left;verticalAlign=top;spacingLeft=4;spacingRight=4;overflow=hidden;rotatable=0;points=[[0,0.5],[1,0.5]];portConstraint=eastwest;whiteSpace=wrap;html=1;" parent="bLBbhyGUmp5BfocRxA7A-83" vertex="1">
          <mxGeometry y="83.44594594594594" width="333.5" height="19.148648648648646" as="geometry" />
        </mxCell>
        <mxCell id="bLBbhyGUmp5BfocRxA7A-88" value="" style="line;strokeWidth=1;fillColor=#FFFFFF;align=left;verticalAlign=middle;spacingTop=-1;spacingLeft=3;spacingRight=3;rotatable=0;labelPosition=right;points=[];portConstraint=eastwest;strokeColor=inherit;" parent="bLBbhyGUmp5BfocRxA7A-83" vertex="1">
          <mxGeometry y="102.59459459459458" width="333.5" height="13.256756756756756" as="geometry" />
        </mxCell>
        <mxCell id="bLBbhyGUmp5BfocRxA7A-89" value="- getSender(): User" style="text;strokeColor=none;fillColor=#FFFFFF;align=left;verticalAlign=top;spacingLeft=4;spacingRight=4;overflow=hidden;rotatable=0;points=[[0,0.5],[1,0.5]];portConstraint=eastwest;whiteSpace=wrap;html=1;" parent="bLBbhyGUmp5BfocRxA7A-83" vertex="1">
          <mxGeometry y="115.85135135135134" width="333.5" height="22.094594594594593" as="geometry" />
        </mxCell>
        <mxCell id="bLBbhyGUmp5BfocRxA7A-90" value="+ createChatPrivate(friendId: Long): boolean" style="text;strokeColor=none;fillColor=#FFFFFF;align=left;verticalAlign=top;spacingLeft=4;spacingRight=4;overflow=hidden;rotatable=0;points=[[0,0.5],[1,0.5]];portConstraint=eastwest;whiteSpace=wrap;html=1;" parent="bLBbhyGUmp5BfocRxA7A-83" vertex="1">
          <mxGeometry y="137.94594594594594" width="333.5" height="22.094594594594593" as="geometry" />
        </mxCell>
        <mxCell id="bLBbhyGUmp5BfocRxA7A-91" value="+ createChatGroup(user: List&amp;lt;Long&amp;gt;, String groupName): boolean" style="text;strokeColor=none;fillColor=#FFFFFF;align=left;verticalAlign=top;spacingLeft=4;spacingRight=4;overflow=hidden;rotatable=0;points=[[0,0.5],[1,0.5]];portConstraint=eastwest;whiteSpace=wrap;html=1;" parent="bLBbhyGUmp5BfocRxA7A-83" vertex="1">
          <mxGeometry y="160.04054054054052" width="333.5" height="20.621621621621625" as="geometry" />
        </mxCell>
        <mxCell id="bLBbhyGUmp5BfocRxA7A-92" value="+ createChatChessClub(name: String): void" style="text;strokeColor=none;fillColor=#FFFFFF;align=left;verticalAlign=top;spacingLeft=4;spacingRight=4;overflow=hidden;rotatable=0;points=[[0,0.5],[1,0.5]];portConstraint=eastwest;whiteSpace=wrap;html=1;" parent="bLBbhyGUmp5BfocRxA7A-83" vertex="1">
          <mxGeometry y="180.66216216216213" width="333.5" height="23.56756756756757" as="geometry" />
        </mxCell>
        <mxCell id="bLBbhyGUmp5BfocRxA7A-93" value="+ leaveChatGroup(groupName: String): void" style="text;strokeColor=none;fillColor=#FFFFFF;align=left;verticalAlign=top;spacingLeft=4;spacingRight=4;overflow=hidden;rotatable=0;points=[[0,0.5],[1,0.5]];portConstraint=eastwest;whiteSpace=wrap;html=1;" parent="bLBbhyGUmp5BfocRxA7A-83" vertex="1">
          <mxGeometry y="204.2297297297297" width="333.5" height="22.094594594594593" as="geometry" />
        </mxCell>
        <mxCell id="bLBbhyGUmp5BfocRxA7A-94" value="+ deleteGroupChat(privateGroupName:String): boolean" style="text;strokeColor=none;fillColor=#FFFFFF;align=left;verticalAlign=top;spacingLeft=4;spacingRight=4;overflow=hidden;rotatable=0;points=[[0,0.5],[1,0.5]];portConstraint=eastwest;whiteSpace=wrap;html=1;" parent="bLBbhyGUmp5BfocRxA7A-83" vertex="1">
          <mxGeometry y="226.3243243243243" width="333.5" height="22.094594594594593" as="geometry" />
        </mxCell>
        <mxCell id="bLBbhyGUmp5BfocRxA7A-95" value="+ deletePrivateChat(recipientId: long): boolean" style="text;strokeColor=none;fillColor=#FFFFFF;align=left;verticalAlign=top;spacingLeft=4;spacingRight=4;overflow=hidden;rotatable=0;points=[[0,0.5],[1,0.5]];portConstraint=eastwest;whiteSpace=wrap;html=1;" parent="bLBbhyGUmp5BfocRxA7A-83" vertex="1">
          <mxGeometry y="248.41891891891888" width="333.5" height="22.094594594594593" as="geometry" />
        </mxCell>
        <mxCell id="bLBbhyGUmp5BfocRxA7A-96" value="+ updateChessClubChat(clubName: String): void" style="text;strokeColor=none;fillColor=#FFFFFF;align=left;verticalAlign=top;spacingLeft=4;spacingRight=4;overflow=hidden;rotatable=0;points=[[0,0.5],[1,0.5]];portConstraint=eastwest;whiteSpace=wrap;html=1;" parent="bLBbhyGUmp5BfocRxA7A-83" vertex="1">
          <mxGeometry y="270.5135135135135" width="333.5" height="23.56756756756757" as="geometry" />
        </mxCell>
        <mxCell id="bLBbhyGUmp5BfocRxA7A-97" value="+ addMemberToGroupChat(chatId: long, newMemberId: long): boolean" style="text;strokeColor=none;fillColor=#FFFFFF;align=left;verticalAlign=top;spacingLeft=4;spacingRight=4;overflow=hidden;rotatable=0;points=[[0,0.5],[1,0.5]];portConstraint=eastwest;whiteSpace=wrap;html=1;" parent="bLBbhyGUmp5BfocRxA7A-83" vertex="1">
          <mxGeometry y="294.08108108108104" width="333.5" height="22.094594594594593" as="geometry" />
        </mxCell>
        <mxCell id="bLBbhyGUmp5BfocRxA7A-98" value="+ writeMessage(content: String, chatId:long):boolean" style="text;strokeColor=none;fillColor=#FFFFFF;align=left;verticalAlign=top;spacingLeft=4;spacingRight=4;overflow=hidden;rotatable=0;points=[[0,0.5],[1,0.5]];portConstraint=eastwest;whiteSpace=wrap;html=1;" parent="bLBbhyGUmp5BfocRxA7A-83" vertex="1">
          <mxGeometry y="316.1756756756756" width="333.5" height="22.094594594594593" as="geometry" />
        </mxCell>
        <mxCell id="bLBbhyGUmp5BfocRxA7A-99" value="+ writeMessageGroup(content: String, chatId:long):boolean" style="text;strokeColor=none;fillColor=#FFFFFF;align=left;verticalAlign=top;spacingLeft=4;spacingRight=4;overflow=hidden;rotatable=0;points=[[0,0.5],[1,0.5]];portConstraint=eastwest;whiteSpace=wrap;html=1;" parent="bLBbhyGUmp5BfocRxA7A-83" vertex="1">
          <mxGeometry y="338.2702702702702" width="333.5" height="22.094594594594593" as="geometry" />
        </mxCell>
        <mxCell id="bLBbhyGUmp5BfocRxA7A-100" value="+ getGroupByGroupName(privateGroupName: String): Chat" style="text;strokeColor=none;fillColor=#FFFFFF;align=left;verticalAlign=top;spacingLeft=4;spacingRight=4;overflow=hidden;rotatable=0;points=[[0,0.5],[1,0.5]];portConstraint=eastwest;whiteSpace=wrap;html=1;" parent="bLBbhyGUmp5BfocRxA7A-83" vertex="1">
          <mxGeometry y="360.3648648648648" width="333.5" height="22.094594594594593" as="geometry" />
        </mxCell>
        <mxCell id="bLBbhyGUmp5BfocRxA7A-101" value="+ getPrivatChatWith(friendId: long): Chat" style="text;strokeColor=none;fillColor=#FFFFFF;align=left;verticalAlign=top;spacingLeft=4;spacingRight=4;overflow=hidden;rotatable=0;points=[[0,0.5],[1,0.5]];portConstraint=eastwest;whiteSpace=wrap;html=1;" parent="bLBbhyGUmp5BfocRxA7A-83" vertex="1">
          <mxGeometry y="382.45945945945937" width="333.5" height="22.094594594594593" as="geometry" />
        </mxCell>
        <mxCell id="bLBbhyGUmp5BfocRxA7A-102" value="+ memberOfChatId(chatId: long): List&amp;lt;Long&amp;gt;" style="text;strokeColor=none;fillColor=#FFFFFF;align=left;verticalAlign=top;spacingLeft=4;spacingRight=4;overflow=hidden;rotatable=0;points=[[0,0.5],[1,0.5]];portConstraint=eastwest;whiteSpace=wrap;html=1;" parent="bLBbhyGUmp5BfocRxA7A-83" vertex="1">
          <mxGeometry y="404.55405405405395" width="333.5" height="22.094594594594593" as="geometry" />
        </mxCell>
        <mxCell id="bLBbhyGUmp5BfocRxA7A-103" value="+ findAllMyGroupChats(): List&amp;lt;Chat&amp;gt;" style="text;strokeColor=none;fillColor=#FFFFFF;align=left;verticalAlign=top;spacingLeft=4;spacingRight=4;overflow=hidden;rotatable=0;points=[[0,0.5],[1,0.5]];portConstraint=eastwest;whiteSpace=wrap;html=1;" parent="bLBbhyGUmp5BfocRxA7A-83" vertex="1">
          <mxGeometry y="426.64864864864853" width="333.5" height="22.094594594594593" as="geometry" />
        </mxCell>
        <mxCell id="bLBbhyGUmp5BfocRxA7A-104" value="+ getNewMessage(chatId: long, newestMessageTime: long): List&amp;gt;ChatMessage&amp;gt;" style="text;strokeColor=none;fillColor=#FFFFFF;align=left;verticalAlign=top;spacingLeft=4;spacingRight=4;overflow=hidden;rotatable=0;points=[[0,0.5],[1,0.5]];portConstraint=eastwest;whiteSpace=wrap;html=1;" parent="bLBbhyGUmp5BfocRxA7A-83" vertex="1">
          <mxGeometry y="448.7432432432431" width="333.5" height="22.094594594594593" as="geometry" />
        </mxCell>
        <mxCell id="bLBbhyGUmp5BfocRxA7A-105" value="+ findChatMessageOf(chatId: long): List&amp;lt;ChatMessage&amp;gt;" style="text;strokeColor=none;fillColor=#FFFFFF;align=left;verticalAlign=top;spacingLeft=4;spacingRight=4;overflow=hidden;rotatable=0;points=[[0,0.5],[1,0.5]];portConstraint=eastwest;whiteSpace=wrap;html=1;" parent="bLBbhyGUmp5BfocRxA7A-83" vertex="1">
          <mxGeometry y="470.8378378378377" width="333.5" height="22.094594594594593" as="geometry" />
        </mxCell>
        <mxCell id="bLBbhyGUmp5BfocRxA7A-106" value="+ myChangeableMessage(chatId: long): List&amp;lt;ChatMessage&amp;gt;" style="text;strokeColor=none;fillColor=#FFFFFF;align=left;verticalAlign=top;spacingLeft=4;spacingRight=4;overflow=hidden;rotatable=0;points=[[0,0.5],[1,0.5]];portConstraint=eastwest;whiteSpace=wrap;html=1;" parent="bLBbhyGUmp5BfocRxA7A-83" vertex="1">
          <mxGeometry y="492.9324324324323" width="333.5" height="22.094594594594593" as="geometry" />
        </mxCell>
        <mxCell id="bLBbhyGUmp5BfocRxA7A-107" value="+ setChangeMessage(chatId: long, oldContent:String, newContent:String): boolean" style="text;strokeColor=none;fillColor=#FFFFFF;align=left;verticalAlign=top;spacingLeft=4;spacingRight=4;overflow=hidden;rotatable=0;points=[[0,0.5],[1,0.5]];portConstraint=eastwest;whiteSpace=wrap;html=1;" parent="bLBbhyGUmp5BfocRxA7A-83" vertex="1">
          <mxGeometry y="515.0270270270269" width="333.5" height="22.094594594594593" as="geometry" />
        </mxCell>
        <mxCell id="bLBbhyGUmp5BfocRxA7A-108" value="+ deleteMessage(chatId: long, oldContent: String):boolean" style="text;strokeColor=none;fillColor=#FFFFFF;align=left;verticalAlign=top;spacingLeft=4;spacingRight=4;overflow=hidden;rotatable=0;points=[[0,0.5],[1,0.5]];portConstraint=eastwest;whiteSpace=wrap;html=1;" parent="bLBbhyGUmp5BfocRxA7A-83" vertex="1">
          <mxGeometry y="537.1216216216214" width="333.5" height="22.094594594594593" as="geometry" />
        </mxCell>
        <mxCell id="bLBbhyGUmp5BfocRxA7A-110" value="ChatMessage" style="swimlane;fontStyle=1;align=center;verticalAlign=top;childLayout=stackLayout;horizontal=1;startSize=26;horizontalStack=0;resizeParent=1;resizeParentMax=0;resizeLast=0;collapsible=1;marginBottom=0;whiteSpace=wrap;html=1;fillColor=#FFFFFF;" parent="bLBbhyGUmp5BfocRxA7A-20" vertex="1">
          <mxGeometry x="355.25" y="167.91891891891893" width="181.25" height="99.64864864864865" as="geometry" />
        </mxCell>
        <mxCell id="bLBbhyGUmp5BfocRxA7A-111" value="- messageId:MessageId" style="text;strokeColor=none;fillColor=#FFFFFF;align=left;verticalAlign=top;spacingLeft=4;spacingRight=4;overflow=hidden;rotatable=0;points=[[0,0.5],[1,0.5]];portConstraint=eastwest;whiteSpace=wrap;html=1;" parent="bLBbhyGUmp5BfocRxA7A-110" vertex="1">
          <mxGeometry y="26" width="181.25" height="19.14864864864865" as="geometry" />
        </mxCell>
        <mxCell id="bLBbhyGUmp5BfocRxA7A-112" value="- content: String" style="text;strokeColor=none;fillColor=#FFFFFF;align=left;verticalAlign=top;spacingLeft=4;spacingRight=4;overflow=hidden;rotatable=0;points=[[0,0.5],[1,0.5]];portConstraint=eastwest;whiteSpace=wrap;html=1;" parent="bLBbhyGUmp5BfocRxA7A-110" vertex="1">
          <mxGeometry y="45.148648648648646" width="181.25" height="19.14864864864865" as="geometry" />
        </mxCell>
        <mxCell id="bLBbhyGUmp5BfocRxA7A-113" value="- chatMessageStatus: ChatMessageStatus" style="text;strokeColor=none;fillColor=#FFFFFF;align=left;verticalAlign=top;spacingLeft=4;spacingRight=4;overflow=hidden;rotatable=0;points=[[0,0.5],[1,0.5]];portConstraint=eastwest;whiteSpace=wrap;html=1;" parent="bLBbhyGUmp5BfocRxA7A-110" vertex="1">
          <mxGeometry y="64.29729729729729" width="181.25" height="29.459459459459463" as="geometry" />
        </mxCell>
        <mxCell id="bLBbhyGUmp5BfocRxA7A-114" value="" style="line;strokeWidth=1;fillColor=#FFFFFF;align=left;verticalAlign=middle;spacingTop=-1;spacingLeft=3;spacingRight=3;rotatable=0;labelPosition=right;points=[];portConstraint=eastwest;strokeColor=inherit;" parent="bLBbhyGUmp5BfocRxA7A-110" vertex="1">
          <mxGeometry y="93.75675675675676" width="181.25" height="5.891891891891892" as="geometry" />
        </mxCell>
        <mxCell id="bLBbhyGUmp5BfocRxA7A-66" style="edgeStyle=orthogonalEdgeStyle;rounded=0;orthogonalLoop=1;jettySize=auto;html=1;entryX=0.5;entryY=1;entryDx=0;entryDy=0;exitX=0.999;exitY=0.057;exitDx=0;exitDy=0;exitPerimeter=0;" parent="bLBbhyGUmp5BfocRxA7A-20" source="bLBbhyGUmp5BfocRxA7A-90" target="bLBbhyGUmp5BfocRxA7A-110" edge="1">
          <mxGeometry relative="1" as="geometry">
            <Array as="points">
              <mxPoint x="427.75" y="655.4729729729729" />
              <mxPoint x="545.9250000000001" y="655.4729729729729" />
              <mxPoint x="545.9250000000001" y="466.19594594594594" />
              <mxPoint x="1054.875" y="466.19594594594594" />
            </Array>
          </mxGeometry>
        </mxCell>
        <mxCell id="bLBbhyGUmp5BfocRxA7A-67" value="1..*" style="edgeLabel;html=1;align=center;verticalAlign=middle;resizable=0;points=[];" parent="bLBbhyGUmp5BfocRxA7A-66" vertex="1" connectable="0">
          <mxGeometry x="0.9183" y="1" relative="1" as="geometry">
            <mxPoint as="offset" />
          </mxGeometry>
        </mxCell>
        <mxCell id="bLBbhyGUmp5BfocRxA7A-68" value="1..*" style="edgeLabel;html=1;align=center;verticalAlign=middle;resizable=0;points=[];" parent="bLBbhyGUmp5BfocRxA7A-66" vertex="1" connectable="0">
          <mxGeometry x="-0.8557" y="-1" relative="1" as="geometry">
            <mxPoint as="offset" />
          </mxGeometry>
        </mxCell>
        <mxCell id="bLBbhyGUmp5BfocRxA7A-115" value="&amp;lt;&amp;lt;interface&amp;gt;&amp;gt;&lt;br&gt;ChatMessageRepository" style="swimlane;fontStyle=0;childLayout=stackLayout;horizontal=1;startSize=26;fillColor=#FFFFFF;horizontalStack=0;resizeParent=1;resizeParentMax=0;resizeLast=0;collapsible=1;marginBottom=0;whiteSpace=wrap;html=1;" parent="bLBbhyGUmp5BfocRxA7A-20" vertex="1">
          <mxGeometry x="485.75" y="289.4391891891892" width="101.5" height="38.2972972972973" as="geometry" />
        </mxCell>
        <mxCell id="bLBbhyGUmp5BfocRxA7A-63" style="edgeStyle=orthogonalEdgeStyle;rounded=0;orthogonalLoop=1;jettySize=auto;html=1;entryX=0.5;entryY=1;entryDx=0;entryDy=0;fillColor=#FFFFFF;exitX=0.723;exitY=0;exitDx=0;exitDy=0;exitPerimeter=0;" parent="bLBbhyGUmp5BfocRxA7A-20" source="bLBbhyGUmp5BfocRxA7A-83" target="bLBbhyGUmp5BfocRxA7A-115" edge="1">
          <mxGeometry relative="1" as="geometry">
            <Array as="points">
              <mxPoint x="379.17499999999995" y="427.1621621621622" />
              <mxPoint x="536.5" y="427.1621621621622" />
            </Array>
          </mxGeometry>
        </mxCell>
        <mxCell id="bLBbhyGUmp5BfocRxA7A-64" value="1" style="edgeLabel;html=1;align=center;verticalAlign=middle;resizable=0;points=[];" parent="bLBbhyGUmp5BfocRxA7A-63" vertex="1" connectable="0">
          <mxGeometry x="-0.8285" relative="1" as="geometry">
            <mxPoint as="offset" />
          </mxGeometry>
        </mxCell>
        <mxCell id="bLBbhyGUmp5BfocRxA7A-65" value="1" style="edgeLabel;html=1;align=center;verticalAlign=middle;resizable=0;points=[];" parent="bLBbhyGUmp5BfocRxA7A-63" vertex="1" connectable="0">
          <mxGeometry x="0.9097" y="-2" relative="1" as="geometry">
            <mxPoint as="offset" />
          </mxGeometry>
        </mxCell>
        <mxCell id="bLBbhyGUmp5BfocRxA7A-116" value="&amp;lt;&amp;lt;enumeration&amp;gt;&amp;gt;&lt;br&gt;ChatType" style="swimlane;fontStyle=0;childLayout=stackLayout;horizontal=1;startSize=26;fillColor=#FFFFFF;horizontalStack=0;resizeParent=1;resizeParentMax=0;resizeLast=0;collapsible=1;marginBottom=0;whiteSpace=wrap;html=1;" parent="bLBbhyGUmp5BfocRxA7A-20" vertex="1">
          <mxGeometry x="739.5" y="73.64864864864865" width="137.75" height="45.148648648648646" as="geometry" />
        </mxCell>
        <mxCell id="bLBbhyGUmp5BfocRxA7A-117" value="GROUP, PRIVATE, CLUB" style="text;strokeColor=none;fillColor=#FFFFFF;align=left;verticalAlign=top;spacingLeft=4;spacingRight=4;overflow=hidden;rotatable=0;points=[[0,0.5],[1,0.5]];portConstraint=eastwest;whiteSpace=wrap;html=1;" parent="bLBbhyGUmp5BfocRxA7A-116" vertex="1">
          <mxGeometry y="26" width="137.75" height="19.148648648648646" as="geometry" />
        </mxCell>
        <mxCell id="bLBbhyGUmp5BfocRxA7A-69" style="edgeStyle=orthogonalEdgeStyle;rounded=0;orthogonalLoop=1;jettySize=auto;html=1;entryX=0;entryY=0.5;entryDx=0;entryDy=0;fillColor=#FFFFFF;" parent="bLBbhyGUmp5BfocRxA7A-20" source="bLBbhyGUmp5BfocRxA7A-70" target="bLBbhyGUmp5BfocRxA7A-117" edge="1">
          <mxGeometry relative="1" as="geometry" />
        </mxCell>
        <mxCell id="bLBbhyGUmp5BfocRxA7A-121" value="MessageId" style="swimlane;fontStyle=1;align=center;verticalAlign=top;childLayout=stackLayout;horizontal=1;startSize=26;horizontalStack=0;resizeParent=1;resizeParentMax=0;resizeLast=0;collapsible=1;marginBottom=0;whiteSpace=wrap;html=1;fillColor=#FFFFFF;" parent="bLBbhyGUmp5BfocRxA7A-20" vertex="1">
          <mxGeometry x="580" y="167.91891891891893" width="116" height="89.33783783783782" as="geometry" />
        </mxCell>
        <mxCell id="bLBbhyGUmp5BfocRxA7A-122" value="senderId: long" style="text;strokeColor=none;fillColor=#FFFFFF;align=left;verticalAlign=top;spacingLeft=4;spacingRight=4;overflow=hidden;rotatable=0;points=[[0,0.5],[1,0.5]];portConstraint=eastwest;whiteSpace=wrap;html=1;" parent="bLBbhyGUmp5BfocRxA7A-121" vertex="1">
          <mxGeometry y="26" width="116" height="19.14864864864865" as="geometry" />
        </mxCell>
        <mxCell id="bLBbhyGUmp5BfocRxA7A-123" value="chatId: long" style="text;strokeColor=none;fillColor=#FFFFFF;align=left;verticalAlign=top;spacingLeft=4;spacingRight=4;overflow=hidden;rotatable=0;points=[[0,0.5],[1,0.5]];portConstraint=eastwest;whiteSpace=wrap;html=1;" parent="bLBbhyGUmp5BfocRxA7A-121" vertex="1">
          <mxGeometry y="45.148648648648646" width="116" height="19.14864864864865" as="geometry" />
        </mxCell>
        <mxCell id="bLBbhyGUmp5BfocRxA7A-124" value="time: long" style="text;strokeColor=none;fillColor=#FFFFFF;align=left;verticalAlign=top;spacingLeft=4;spacingRight=4;overflow=hidden;rotatable=0;points=[[0,0.5],[1,0.5]];portConstraint=eastwest;whiteSpace=wrap;html=1;" parent="bLBbhyGUmp5BfocRxA7A-121" vertex="1">
          <mxGeometry y="64.29729729729729" width="116" height="19.14864864864865" as="geometry" />
        </mxCell>
        <mxCell id="bLBbhyGUmp5BfocRxA7A-125" value="" style="line;strokeWidth=1;fillColor=#FFFFFF;align=left;verticalAlign=middle;spacingTop=-1;spacingLeft=3;spacingRight=3;rotatable=0;labelPosition=right;points=[];portConstraint=eastwest;strokeColor=inherit;" parent="bLBbhyGUmp5BfocRxA7A-121" vertex="1">
          <mxGeometry y="83.44594594594594" width="116" height="5.891891891891893" as="geometry" />
        </mxCell>
        <mxCell id="bLBbhyGUmp5BfocRxA7A-109" style="edgeStyle=orthogonalEdgeStyle;rounded=0;orthogonalLoop=1;jettySize=auto;html=1;entryX=0;entryY=0.5;entryDx=0;entryDy=0;" parent="bLBbhyGUmp5BfocRxA7A-20" source="bLBbhyGUmp5BfocRxA7A-110" target="bLBbhyGUmp5BfocRxA7A-121" edge="1">
          <mxGeometry relative="1" as="geometry" />
        </mxCell>
        <mxCell id="bLBbhyGUmp5BfocRxA7A-126" value="&amp;lt;&amp;lt;enumeration&amp;gt;&amp;gt;&lt;br&gt;ChatMessageStatus" style="swimlane;fontStyle=0;childLayout=stackLayout;horizontal=1;startSize=26;fillColor=#FFFFFF;horizontalStack=0;resizeParent=1;resizeParentMax=0;resizeLast=0;collapsible=1;marginBottom=0;whiteSpace=wrap;html=1;" parent="bLBbhyGUmp5BfocRxA7A-20" vertex="1">
          <mxGeometry x="101.5" y="294.5945945945946" width="137.75" height="45.148648648648646" as="geometry" />
        </mxCell>
        <mxCell id="bLBbhyGUmp5BfocRxA7A-127" value="UNREAD, READ" style="text;strokeColor=none;fillColor=#FFFFFF;align=left;verticalAlign=top;spacingLeft=4;spacingRight=4;overflow=hidden;rotatable=0;points=[[0,0.5],[1,0.5]];portConstraint=eastwest;whiteSpace=wrap;html=1;" parent="bLBbhyGUmp5BfocRxA7A-126" vertex="1">
          <mxGeometry y="26" width="137.75" height="19.148648648648646" as="geometry" />
        </mxCell>
        <mxCell id="bLBbhyGUmp5BfocRxA7A-128" style="edgeStyle=orthogonalEdgeStyle;rounded=0;orthogonalLoop=1;jettySize=auto;html=1;entryX=0.353;entryY=1;entryDx=0;entryDy=0;entryPerimeter=0;" parent="bLBbhyGUmp5BfocRxA7A-20" source="bLBbhyGUmp5BfocRxA7A-112" target="bLBbhyGUmp5BfocRxA7A-127" edge="1">
          <mxGeometry relative="1" as="geometry" />
        </mxCell>
        <mxCell id="bLBbhyGUmp5BfocRxA7A-129" value="ChatRequestDto" style="swimlane;fontStyle=1;align=center;verticalAlign=top;childLayout=stackLayout;horizontal=1;startSize=26;horizontalStack=0;resizeParent=1;resizeParentMax=0;resizeLast=0;collapsible=1;marginBottom=0;whiteSpace=wrap;html=1;fillColor=#FFFFFF;" parent="bLBbhyGUmp5BfocRxA7A-20" vertex="1">
          <mxGeometry x="913.5" y="116.36486486486486" width="116" height="223.37837837837836" as="geometry" />
        </mxCell>
        <mxCell id="bLBbhyGUmp5BfocRxA7A-130" value="- chatId: Long" style="text;strokeColor=none;fillColor=#FFFFFF;align=left;verticalAlign=top;spacingLeft=4;spacingRight=4;overflow=hidden;rotatable=0;points=[[0,0.5],[1,0.5]];portConstraint=eastwest;whiteSpace=wrap;html=1;" parent="bLBbhyGUmp5BfocRxA7A-129" vertex="1">
          <mxGeometry y="26" width="116" height="19.148648648648646" as="geometry" />
        </mxCell>
        <mxCell id="bLBbhyGUmp5BfocRxA7A-131" value="- ownerId: Long" style="text;strokeColor=none;fillColor=#FFFFFF;align=left;verticalAlign=top;spacingLeft=4;spacingRight=4;overflow=hidden;rotatable=0;points=[[0,0.5],[1,0.5]];portConstraint=eastwest;whiteSpace=wrap;html=1;" parent="bLBbhyGUmp5BfocRxA7A-129" vertex="1">
          <mxGeometry y="45.148648648648646" width="116" height="19.148648648648646" as="geometry" />
        </mxCell>
        <mxCell id="bLBbhyGUmp5BfocRxA7A-132" value="- chatType: ChatType" style="text;strokeColor=none;fillColor=#FFFFFF;align=left;verticalAlign=top;spacingLeft=4;spacingRight=4;overflow=hidden;rotatable=0;points=[[0,0.5],[1,0.5]];portConstraint=eastwest;whiteSpace=wrap;html=1;" parent="bLBbhyGUmp5BfocRxA7A-129" vertex="1">
          <mxGeometry y="64.29729729729729" width="116" height="19.148648648648646" as="geometry" />
        </mxCell>
        <mxCell id="bLBbhyGUmp5BfocRxA7A-133" value="- recipientId: long" style="text;strokeColor=none;fillColor=#FFFFFF;align=left;verticalAlign=top;spacingLeft=4;spacingRight=4;overflow=hidden;rotatable=0;points=[[0,0.5],[1,0.5]];portConstraint=eastwest;whiteSpace=wrap;html=1;" parent="bLBbhyGUmp5BfocRxA7A-129" vertex="1">
          <mxGeometry y="83.44594594594594" width="116" height="19.148648648648646" as="geometry" />
        </mxCell>
        <mxCell id="bLBbhyGUmp5BfocRxA7A-134" value="- chessClubName: String" style="text;strokeColor=none;fillColor=#FFFFFF;align=left;verticalAlign=top;spacingLeft=4;spacingRight=4;overflow=hidden;rotatable=0;points=[[0,0.5],[1,0.5]];portConstraint=eastwest;whiteSpace=wrap;html=1;" parent="bLBbhyGUmp5BfocRxA7A-129" vertex="1">
          <mxGeometry y="102.59459459459458" width="116" height="19.148648648648646" as="geometry" />
        </mxCell>
        <mxCell id="bLBbhyGUmp5BfocRxA7A-135" value="- privateGroupName: String" style="text;strokeColor=none;fillColor=#FFFFFF;align=left;verticalAlign=top;spacingLeft=4;spacingRight=4;overflow=hidden;rotatable=0;points=[[0,0.5],[1,0.5]];portConstraint=eastwest;whiteSpace=wrap;html=1;" parent="bLBbhyGUmp5BfocRxA7A-129" vertex="1">
          <mxGeometry y="121.74324324324323" width="116" height="19.148648648648646" as="geometry" />
        </mxCell>
        <mxCell id="bLBbhyGUmp5BfocRxA7A-136" value="- user: List&amp;lt;Long&amp;gt;" style="text;strokeColor=none;fillColor=#FFFFFF;align=left;verticalAlign=top;spacingLeft=4;spacingRight=4;overflow=hidden;rotatable=0;points=[[0,0.5],[1,0.5]];portConstraint=eastwest;whiteSpace=wrap;html=1;fontStyle=0" parent="bLBbhyGUmp5BfocRxA7A-129" vertex="1">
          <mxGeometry y="140.89189189189187" width="116" height="19.148648648648646" as="geometry" />
        </mxCell>
        <mxCell id="bLBbhyGUmp5BfocRxA7A-137" value="- senderId: long" style="text;strokeColor=none;fillColor=#FFFFFF;align=left;verticalAlign=top;spacingLeft=4;spacingRight=4;overflow=hidden;rotatable=0;points=[[0,0.5],[1,0.5]];portConstraint=eastwest;whiteSpace=wrap;html=1;" parent="bLBbhyGUmp5BfocRxA7A-129" vertex="1">
          <mxGeometry y="160.04054054054052" width="116" height="19.148648648648646" as="geometry" />
        </mxCell>
        <mxCell id="bLBbhyGUmp5BfocRxA7A-138" value="- newContent: String" style="text;strokeColor=none;fillColor=#FFFFFF;align=left;verticalAlign=top;spacingLeft=4;spacingRight=4;overflow=hidden;rotatable=0;points=[[0,0.5],[1,0.5]];portConstraint=eastwest;whiteSpace=wrap;html=1;" parent="bLBbhyGUmp5BfocRxA7A-129" vertex="1">
          <mxGeometry y="179.18918918918916" width="116" height="19.148648648648646" as="geometry" />
        </mxCell>
        <mxCell id="bLBbhyGUmp5BfocRxA7A-139" value="- oldContent: String" style="text;strokeColor=none;fillColor=#FFFFFF;align=left;verticalAlign=top;spacingLeft=4;spacingRight=4;overflow=hidden;rotatable=0;points=[[0,0.5],[1,0.5]];portConstraint=eastwest;whiteSpace=wrap;html=1;" parent="bLBbhyGUmp5BfocRxA7A-129" vertex="1">
          <mxGeometry y="198.3378378378378" width="116" height="19.148648648648646" as="geometry" />
        </mxCell>
        <mxCell id="bLBbhyGUmp5BfocRxA7A-140" value="" style="line;strokeWidth=1;fillColor=#FFFFFF;align=left;verticalAlign=middle;spacingTop=-1;spacingLeft=3;spacingRight=3;rotatable=0;labelPosition=right;points=[];portConstraint=eastwest;strokeColor=inherit;" parent="bLBbhyGUmp5BfocRxA7A-129" vertex="1">
          <mxGeometry y="217.48648648648646" width="116" height="5.891891891891891" as="geometry" />
        </mxCell>
        <mxCell id="bLBbhyGUmp5BfocRxA7A-141" style="edgeStyle=orthogonalEdgeStyle;rounded=0;orthogonalLoop=1;jettySize=auto;html=1;" parent="bLBbhyGUmp5BfocRxA7A-20" target="bLBbhyGUmp5BfocRxA7A-101" edge="1">
          <mxGeometry relative="1" as="geometry">
            <mxPoint x="790.25" y="758.5810810810812" as="sourcePoint" />
            <Array as="points">
              <mxPoint x="790.25" y="747.5337837837839" />
              <mxPoint x="790.25" y="788.0405405405406" />
              <mxPoint x="531.4250000000001" y="788.0405405405406" />
              <mxPoint x="531.4250000000001" y="880.1013513513512" />
            </Array>
          </mxGeometry>
        </mxCell>
        <mxCell id="bLBbhyGUmp5BfocRxA7A-142" value="1" style="edgeLabel;html=1;align=center;verticalAlign=middle;resizable=0;points=[];" parent="bLBbhyGUmp5BfocRxA7A-141" vertex="1" connectable="0">
          <mxGeometry x="0.8563" y="-1" relative="1" as="geometry">
            <mxPoint as="offset" />
          </mxGeometry>
        </mxCell>
        <mxCell id="bLBbhyGUmp5BfocRxA7A-143" value="1" style="edgeLabel;html=1;align=center;verticalAlign=middle;resizable=0;points=[];" parent="bLBbhyGUmp5BfocRxA7A-141" vertex="1" connectable="0">
          <mxGeometry x="-0.8812" y="-1" relative="1" as="geometry">
            <mxPoint as="offset" />
          </mxGeometry>
        </mxCell>
        <mxCell id="bLBbhyGUmp5BfocRxA7A-34" style="edgeStyle=orthogonalEdgeStyle;rounded=0;orthogonalLoop=1;jettySize=auto;html=1;exitX=0.5;exitY=0;exitDx=0;exitDy=0;entryX=0.514;entryY=1.016;entryDx=0;entryDy=0;entryPerimeter=0;fillColor=#FFFFFF;" parent="1" edge="1">
          <mxGeometry relative="1" as="geometry">
            <mxPoint x="-1156.3600000000001" y="1030.416" as="targetPoint" />
          </mxGeometry>
        </mxCell>
        <mxCell id="bLBbhyGUmp5BfocRxA7A-35" value="1" style="edgeLabel;html=1;align=center;verticalAlign=middle;resizable=0;points=[];fillColor=#FFFFFF;" parent="bLBbhyGUmp5BfocRxA7A-34" vertex="1" connectable="0">
          <mxGeometry x="-0.7954" y="-1" relative="1" as="geometry">
            <mxPoint as="offset" />
          </mxGeometry>
        </mxCell>
        <mxCell id="bLBbhyGUmp5BfocRxA7A-36" value="1" style="edgeLabel;html=1;align=center;verticalAlign=middle;resizable=0;points=[];fillColor=#FFFFFF;" parent="bLBbhyGUmp5BfocRxA7A-34" vertex="1" connectable="0">
          <mxGeometry x="0.8437" y="3" relative="1" as="geometry">
            <mxPoint as="offset" />
          </mxGeometry>
        </mxCell>
        <mxCell id="bLBbhyGUmp5BfocRxA7A-118" style="edgeStyle=orthogonalEdgeStyle;rounded=0;orthogonalLoop=1;jettySize=auto;html=1;entryX=0.527;entryY=1.027;entryDx=0;entryDy=0;entryPerimeter=0;fillColor=#FFFFFF;" parent="1" edge="1">
          <mxGeometry relative="1" as="geometry">
            <mxPoint x="-1156.2199999999998" y="737.702" as="targetPoint" />
          </mxGeometry>
        </mxCell>
        <mxCell id="bLBbhyGUmp5BfocRxA7A-119" value="1" style="edgeLabel;html=1;align=center;verticalAlign=middle;resizable=0;points=[];fillColor=#FFFFFF;" parent="bLBbhyGUmp5BfocRxA7A-118" vertex="1" connectable="0">
          <mxGeometry x="-0.6937" relative="1" as="geometry">
            <mxPoint as="offset" />
          </mxGeometry>
        </mxCell>
        <mxCell id="bLBbhyGUmp5BfocRxA7A-120" value="1" style="edgeLabel;html=1;align=center;verticalAlign=middle;resizable=0;points=[];fillColor=#FFFFFF;" parent="bLBbhyGUmp5BfocRxA7A-118" vertex="1" connectable="0">
          <mxGeometry x="0.7359" y="-1" relative="1" as="geometry">
            <mxPoint y="1" as="offset" />
          </mxGeometry>
        </mxCell>
      </root>
    </mxGraphModel>
  </diagram>
</mxfile>
